<svg xmlns="http://www.w3.org/2000/svg" xmlns:xlink="http://www.w3.org/1999/xlink" width="81.382" height="81.294" viewBox="0 0 81.382 81.294">
  <defs>
    <clipPath id="clip-path">
      <rect id="Rectangle_29" data-name="Rectangle 29" width="81.382" height="81.294" fill="#c52027"/>
    </clipPath>
  </defs>
  <g id="Group_3723" data-name="Group 3723" transform="translate(0 -0.001)">
    <g id="Group_3722" data-name="Group 3722" transform="translate(0 0.001)" clip-path="url(#clip-path)">
      <path id="Path_9" data-name="Path 9" d="M36.261,81.3a4.092,4.092,0,0,1-1.454-.7,3.18,3.18,0,0,1-1.01-2c-.364-2.274-.747-4.546-1.1-6.822a.649.649,0,0,0-.558-.6,29.821,29.821,0,0,1-7-2.957c-.406-.243-.66-.075-.956.134q-2.821,2-5.643,4a2.872,2.872,0,0,1-3.706-.107c-1.042-.913-2-1.928-2.977-2.909-.826-.826-1.632-1.672-2.451-2.5a2.954,2.954,0,0,1-.328-3.97q1.994-2.793,4.009-5.57a.773.773,0,0,0,.07-.962,30.193,30.193,0,0,1-2.967-7.165.7.7,0,0,0-.676-.558c-2.237-.38-4.466-.818-6.712-1.135A3.189,3.189,0,0,1,0,44.231c.075-2.371.018-4.745.02-7.118A3,3,0,0,1,2.8,33.878c2.224-.359,4.444-.739,6.67-1.083A.678.678,0,0,0,10.1,32.2a29.915,29.915,0,0,1,2.937-7.123.769.769,0,0,0-.053-.959q-2.044-2.85-4.051-5.726a2.949,2.949,0,0,1,.3-3.9q2.668-2.687,5.4-5.313A2.838,2.838,0,0,1,18.4,8.944q2.839,2.06,5.662,4.142a.63.63,0,0,0,.779.1,32.389,32.389,0,0,1,7.2-3.019.783.783,0,0,0,.645-.723q.58-3.457,1.2-6.907A2.959,2.959,0,0,1,36.915,0q3.712,0,7.424.011a2.946,2.946,0,0,1,3.026,2.541q.591,3.4,1.122,6.817a.757.757,0,0,0,.638.718,29.289,29.289,0,0,1,7.392,3.074.666.666,0,0,0,.826-.082q2.8-1.978,5.618-3.942a2.865,2.865,0,0,1,3.781.031c.418.371.815.766,1.209,1.162,1.433,1.443,2.87,2.881,4.286,4.34a2.83,2.83,0,0,1,.31,3.763q-1.992,2.856-4.055,5.663a.929.929,0,0,0-.05,1.178,29.888,29.888,0,0,1,2.817,6.9.91.91,0,0,0,.85.763c2.239.369,4.471.777,6.711,1.14a3.047,3.047,0,0,1,2.558,3c-.1,2.5-.033,5.016-.029,7.525a2.664,2.664,0,0,1-2.278,2.854c-1.595.312-3.206.54-4.81.806-.8.133-1.6.282-2.407.394a.591.591,0,0,0-.561.485,28.984,28.984,0,0,1-3.063,7.287.629.629,0,0,0,.054.782c1.308,1.835,2.6,3.686,3.9,5.52a3.287,3.287,0,0,1,.722,2.562,2.775,2.775,0,0,1-.762,1.522q-2.678,2.677-5.367,5.342a3.091,3.091,0,0,1-3.957.258c-1.834-1.367-3.718-2.666-5.563-4.018a.855.855,0,0,0-1.09-.06,29.508,29.508,0,0,1-7.134,2.906.642.642,0,0,0-.545.57c-.364,2.171-.78,4.335-1.105,6.512A3.269,3.269,0,0,1,45.008,81.3Zm29.9-40.67A25.468,25.468,0,1,0,41.649,66.081,25.439,25.439,0,0,0,66.16,40.625" transform="translate(0 -0.001)" fill="#c52027"/>
      <path id="Path_10" data-name="Path 10" d="M183.542,196.816a1.457,1.457,0,0,1-1.291-.77c-.555-.872-1.11-1.744-1.647-2.627a.581.581,0,0,0-.657-.313,14.273,14.273,0,0,1-3.294.036.759.759,0,0,0-.831.425q-.726,1.224-1.5,2.416a1.573,1.573,0,0,1-2.248.722q-1.463-.586-2.918-1.191a1.557,1.557,0,0,1-1.025-1.993c.208-.908.4-1.82.636-2.721a.8.8,0,0,0-.308-.965,12.807,12.807,0,0,1-2.348-2.311.527.527,0,0,0-.617-.207c-.97.24-1.947.453-2.92.679a1.53,1.53,0,0,1-2.1-1.031c-.412-.948-.822-1.9-1.214-2.853a1.492,1.492,0,0,1,.625-2.142c.829-.557,1.688-1.071,2.545-1.585a.681.681,0,0,0,.359-.8,14.525,14.525,0,0,1-.029-3.292.643.643,0,0,0-.371-.688c-.858-.513-1.7-1.052-2.547-1.584a1.47,1.47,0,0,1-.682-2.11c.414-1.021.825-2.042,1.245-3.06a1.5,1.5,0,0,1,1.87-.98c.96.21,1.919.422,2.872.662a.763.763,0,0,0,.914-.32,12.287,12.287,0,0,1,2.28-2.308.744.744,0,0,0,.3-.876c-.242-.952-.449-1.913-.665-2.871a1.494,1.494,0,0,1,1.02-1.976c1-.42,1.994-.853,3-1.258a1.451,1.451,0,0,1,2.065.692c.548.876,1.114,1.741,1.658,2.62a.512.512,0,0,0,.583.27,11.317,11.317,0,0,1,3.241-.027.865.865,0,0,0,.992-.5c.469-.824.99-1.618,1.487-2.426a1.525,1.525,0,0,1,2.042-.7q1.609.631,3.2,1.3a1.439,1.439,0,0,1,.9,1.73c-.218,1.045-.444,2.088-.694,3.125a.618.618,0,0,0,.231.709,15.279,15.279,0,0,1,2.446,2.433.623.623,0,0,0,.73.182c.954-.232,1.912-.45,2.866-.685a1.482,1.482,0,0,1,1.952.9q.725,1.624,1.379,3.279a1.469,1.469,0,0,1-.693,1.874c-.855.55-1.708,1.1-2.573,1.638a.7.7,0,0,0-.367.795,13.982,13.982,0,0,1,.013,3.293.584.584,0,0,0,.32.659c.842.507,1.683,1.017,2.512,1.543a1.493,1.493,0,0,1,.717,2.147q-.615,1.56-1.267,3.106a1.459,1.459,0,0,1-1.871.969c-1.01-.216-2.017-.449-3.022-.688a.6.6,0,0,0-.7.239,12.348,12.348,0,0,1-2.318,2.34.566.566,0,0,0-.231.7c.261,1.052.512,2.107.742,3.166a1.434,1.434,0,0,1-.824,1.682c-1.113.5-2.243.959-3.367,1.435a1.462,1.462,0,0,1-.6.095m-14.894-18.973a9.463,9.463,0,1,0,9.664-9.511,9.395,9.395,0,0,0-9.664,9.511" transform="translate(-137.373 -137.157)" fill="#c52027"/>
    </g>
  </g>
</svg>
