<svg id="Group_3727" data-name="Group 3727" xmlns="http://www.w3.org/2000/svg" xmlns:xlink="http://www.w3.org/1999/xlink" width="83.02" height="66.438" viewBox="0 0 83.02 66.438">
  <defs>
    <clipPath id="clip-path">
      <rect id="Rectangle_31" data-name="Rectangle 31" width="83.02" height="66.438" fill="#c52027"/>
    </clipPath>
  </defs>
  <g id="Group_3726" data-name="Group 3726" clip-path="url(#clip-path)">
    <path id="Path_16" data-name="Path 16" d="M78.775,43.416a9.591,9.591,0,0,1-6.08,2c-2.465-.005-4.935,0-7.4,0h-.65c0-1.045-.035-2.055.01-3.06.06-1.27-.3-1.425-1.31-1.625-1.705-.335-3.42-.6-5.125-.93a1.141,1.141,0,0,1-.66-.46,1.9,1.9,0,0,1,.11-2.43c.96-1.27,1.795-2.635,2.68-3.96.465-.705.475-1-.1-1.585q-2.333-2.378-4.7-4.7c-.605-.59-1.06-.55-1.9.015-1.405.955-2.805,1.92-4.21,2.87a1.542,1.542,0,0,1-2.335-.885c-.335-1.575-.58-3.17-.865-4.755-.05-.285-.125-.565-.2-.845A.979.979,0,0,0,45,22.271c-2.3,0-4.6-.01-6.9.005-.77,0-1.075.3-1.245,1.19-.275,1.445-.51,2.9-.76,4.34a2.994,2.994,0,0,0-.1.545c.005,1.045-.715,1.36-1.55,1.515a1,1,0,0,1-.675-.16c-1.46-.985-2.905-1.99-4.345-3a1.332,1.332,0,0,0-2.11.2c-1.485,1.5-2.975,3.01-4.45,4.525-.62.63-.62.95-.1,1.685.895,1.27,1.78,2.545,2.67,3.82a1.91,1.91,0,0,1,.225,2.325,1.246,1.246,0,0,1-.895.66q-2.6.458-5.185.94c-.885.17-1.145.51-1.145,1.405v3.155H6.6a6.434,6.434,0,0,1-6.4-4.73,6.632,6.632,0,0,1,2.12-6.51,2.878,2.878,0,0,1,.345-.265,3.649,3.649,0,0,0,1.92-4A11.035,11.035,0,0,1,5.65,23.376a12.275,12.275,0,0,1,7.515-6.37,13.376,13.376,0,0,1,6.7-.09A4.415,4.415,0,0,0,25,14.286,22.288,22.288,0,0,1,28.975,7.8,22.565,22.565,0,0,1,54.2,1.491,23.322,23.322,0,0,1,63.83,8.5a21.437,21.437,0,0,1,4.695,10.135c.245,1.3.235,2.635.4,3.95a2.347,2.347,0,0,0,2.63,2.23,11.636,11.636,0,0,1,4.705.635,9.959,9.959,0,0,1,6.59,7.93,9.9,9.9,0,0,1-4.075,10.035" transform="translate(0 0)" fill="#c52027"/>
    <path id="Path_17" data-name="Path 17" d="M83.069,67.9c.015-.525-.1-.78-.68-.865-1.675-.255-3.34-.58-5.01-.87a1.4,1.4,0,0,1-1.105-.975c-.285-.73-.58-1.46-.9-2.175a1.253,1.253,0,0,1,.09-1.34c1.015-1.465,1.995-2.955,2.99-4.435.08-.12.155-.24.25-.38-.08-.1-.145-.21-.225-.3-1.04-1.04-2.09-2.075-3.125-3.12-.29-.3-.505-.19-.8.025-1.44,1.015-2.9,2-4.35,3a1.281,1.281,0,0,1-1.35.125c-.83-.37-1.675-.71-2.49-1.12a1.146,1.146,0,0,1-.555-.67c-.37-1.775-.7-3.565-1.005-5.355-.07-.415-.225-.57-.64-.565-1.43.01-2.86.015-4.29,0-.4-.005-.535.155-.6.53-.31,1.73-.67,3.45-.96,5.18a1.187,1.187,0,0,1-.795,1c-.745.31-1.495.61-2.225.96a1.38,1.38,0,0,1-1.515-.1c-1.41-.98-2.84-1.94-4.24-2.935-.37-.255-.62-.3-.96.055-.93.97-1.89,1.92-2.855,2.86-.35.345-.335.595-.045,1,1.02,1.41,1.99,2.855,2.975,4.29a1.138,1.138,0,0,1,.035,1.28,7.072,7.072,0,0,0-.73,1.705,1.958,1.958,0,0,1-1.915,1.62c-1.43.22-2.855.49-4.28.74-.375.07-.76.145-.765.645,0,1.415-.02,2.825.02,4.235a.8.8,0,0,0,.48.585c1.5.3,3.005.58,4.515.79A1.77,1.77,0,0,1,47.814,74.8a14.34,14.34,0,0,0,.765,1.96,1.286,1.286,0,0,1-.115,1.44c-.985,1.41-1.93,2.85-2.915,4.255a.508.508,0,0,0,.085.79c1.02.975,2.03,1.955,3.025,2.96a.5.5,0,0,0,.785.065c1.345-.965,2.73-1.88,4.08-2.84a1.561,1.561,0,0,1,1.69-.125c.695.32,1.4.635,2.11.9a1.5,1.5,0,0,1,1.07,1.295c.25,1.575.59,3.13.865,4.7.09.515.34.675.845.665,1.305-.025,2.615-.035,3.92,0,.54.015.7-.18.78-.695.265-1.675.565-3.345.92-5a1.442,1.442,0,0,1,.695-.85c.805-.415,1.685-.695,2.5-1.09a1.38,1.38,0,0,1,1.51.13c1.365.94,2.75,1.85,4.095,2.82.375.27.585.26.89-.055.95-.98,1.915-1.955,2.9-2.9a.571.571,0,0,0,.07-.895c-.955-1.38-1.87-2.79-2.82-4.17a1.356,1.356,0,0,1-.12-1.51,8.547,8.547,0,0,0,.71-1.72,1.983,1.983,0,0,1,1.9-1.635c1.39-.185,2.77-.485,4.155-.73.56-.105.92-.28.87-1-.08-1.22-.045-2.45-.01-3.67m-12.25,1.945a8.839,8.839,0,0,1-8.925,8.885,9.066,9.066,0,1,1,8.925-8.885" transform="translate(-20.494 -24.441)" fill="#c52027"/>
  </g>
</svg>
