<svg id="Group_3725" data-name="Group 3725" xmlns="http://www.w3.org/2000/svg" xmlns:xlink="http://www.w3.org/1999/xlink" width="77" height="69.898" viewBox="0 0 77 69.898">
  <defs>
    <clipPath id="clip-path">
      <rect id="Rectangle_30" data-name="Rectangle 30" width="77" height="69.898" fill="#c52027"/>
    </clipPath>
  </defs>
  <g id="Group_3724" data-name="Group 3724" clip-path="url(#clip-path)">
    <path id="Path_11" data-name="Path 11" d="M6.141,4.185C6,5.971,6.071,7.936,7.719,9.5c2.15,2.037,8.11,2.221,10.338.266A5.112,5.112,0,0,0,19.913,5.8c.008-1.338,0-2.677.028-4.015A1.516,1.516,0,0,1,20.879.171c.71-.244,1.2.179,1.631.662C26.4,5.138,28.364,12.67,21.066,18.551a9.2,9.2,0,0,1-1.833,1.308c-1.179.538-1.327,1.388-1.219,2.549.607,6.53,1.153,13.065,1.726,19.6.555,6.325,1.127,12.648,1.668,18.974a9.145,9.145,0,0,1-.353,4.577,6.566,6.566,0,0,1-5.52,4.179,21.151,21.151,0,0,1-5.258,0,6.77,6.77,0,0,1-5.924-7.566q.484-6.184,1-12.366c.385-4.621.8-9.239,1.174-13.86.381-4.747.7-9.5,1.1-14.244a1.616,1.616,0,0,0-.887-1.708C3.625,17.941.987,15.423.238,11.6-.606,7.293.844,3.611,3.823.485A1.222,1.222,0,0,1,5.3.118a1.38,1.38,0,0,1,.835,1.3c.022.836.006,1.672.006,2.77M15.4,61.973a2.376,2.376,0,0,0-2.488-2.416,2.538,2.538,0,0,0-2.459,2.5,2.412,2.412,0,0,0,2.6,2.445A2.332,2.332,0,0,0,15.4,61.973" transform="translate(0 0)" fill="#c52027"/>
    <path id="Path_12" data-name="Path 12" d="M109.924,48.754c-8.165-.177-15.458-.6-22.6-2.426-.2-.052-.409-.091-.606-.159-.344-.12-.853-.081-.944-.5s.388-.593.677-.807a19.676,19.676,0,0,0,4.532-4.647,13.46,13.46,0,0,0,2.374-7.039A1.156,1.156,0,0,1,94.546,31.9a110.3,110.3,0,0,1,23.762-.575A69.859,69.859,0,0,1,134.053,34.2a15.081,15.081,0,0,1,5.838,3.069c1.795,1.678,1.78,3.523-.05,5.169a14.251,14.251,0,0,1-4.809,2.642,62.512,62.512,0,0,1-16.438,3.21c-3.164.253-6.341.341-8.67.46" transform="translate(-64.234 -23.166)" fill="#c52027"/>
    <path id="Path_13" data-name="Path 13" d="M109.424,103.455a94.1,94.1,0,0,1-20.793-2.008c-1.267-.271-1.929-.72-1.978-2.179-.092-2.751-.407-5.5-.675-8.24-.1-1,.1-1.353,1.213-1.081a97.674,97.674,0,0,0,26.647,2.288,83.069,83.069,0,0,0,18.349-2.47,27.251,27.251,0,0,0,8.19-3.386c.786-.517,1-.3.989.553-.02,2.551.012,5.1-.017,7.652a4.044,4.044,0,0,1-2.191,3.307,26.857,26.857,0,0,1-9.322,3.55,88.276,88.276,0,0,1-20.413,2.014m8.693-5.168a1.586,1.586,0,0,0-1.635-1.667,1.562,1.562,0,0,0-1.732,1.558,1.685,1.685,0,1,0,3.367.109M103.84,98.3a1.568,1.568,0,0,0-1.611-1.674,1.641,1.641,0,0,0-1.761,1.684,1.68,1.68,0,0,0,1.7,1.632,1.639,1.639,0,0,0,1.67-1.642m7.143-.059a1.637,1.637,0,0,0-1.713-1.613,1.532,1.532,0,0,0-1.6,1.677,1.7,1.7,0,0,0,1.681,1.669,1.748,1.748,0,0,0,1.634-1.733" transform="translate(-64.376 -64.485)" fill="#c52027"/>
    <path id="Path_14" data-name="Path 14" d="M112.276,156.486a91.961,91.961,0,0,1-19.3-1.763,1.859,1.859,0,0,1-1.794-1.938c-.192-2.917-.485-5.827-.75-8.739-.083-.911.4-.931,1.087-.783a88.237,88.237,0,0,0,10.9,1.636,119.716,119.716,0,0,0,17.03.242,80.364,80.364,0,0,0,16.1-2.333,25.326,25.326,0,0,0,8.184-3.391c.78-.541.992-.294.986.553-.019,2.551,0,5.1-.013,7.652a3.738,3.738,0,0,1-1.776,3.017c-2.821,2.1-6.133,3.018-9.477,3.794a88.133,88.133,0,0,1-21.169,2.053m9.182-5.378a1.694,1.694,0,0,0-1.665-1.672,1.591,1.591,0,0,0-1.707,1.6,1.723,1.723,0,0,0,1.7,1.774,1.761,1.761,0,0,0,1.668-1.7m-15.939,1.7a1.7,1.7,0,0,0,1.662-1.678,1.583,1.583,0,0,0-1.6-1.7,1.732,1.732,0,0,0-1.766,1.711,1.773,1.773,0,0,0,1.708,1.666m7.106,0a1.729,1.729,0,0,0,1.727-1.631,1.7,1.7,0,0,0-1.731-1.742,1.544,1.544,0,0,0-1.607,1.673,1.606,1.606,0,0,0,1.611,1.7" transform="translate(-67.719 -104.201)" fill="#c52027"/>
    <path id="Path_15" data-name="Path 15" d="M148.273,197.233c0,1.087-.04,2.176.01,3.261a3.833,3.833,0,0,1-1.636,3.343,20.437,20.437,0,0,1-7.491,3.387,80.307,80.307,0,0,1-18.079,2.545,105.5,105.5,0,0,1-23.338-1.479c-1.277-.236-1.806-.678-1.846-2.076-.076-2.625-.424-5.242-.66-7.863-.145-1.605-.03-1.716,1.494-1.417a107,107,0,0,0,27.207,1.476,73.452,73.452,0,0,0,16.9-2.77,23.391,23.391,0,0,0,6.4-2.826c.722-.485,1.047-.374,1.038.53-.013,1.3,0,2.592,0,3.888m-30.381,7.038a1.677,1.677,0,0,0-1.59-1.754,1.611,1.611,0,0,0-1.722,1.714,1.538,1.538,0,0,0,1.615,1.665,1.646,1.646,0,0,0,1.7-1.626m7.129-.028a1.751,1.751,0,0,0-1.639-1.722,1.73,1.73,0,0,0-1.727,1.625,1.593,1.593,0,0,0,1.682,1.745,1.662,1.662,0,0,0,1.684-1.648m-14.269-.024a1.716,1.716,0,0,0-1.649-1.7,1.773,1.773,0,0,0-1.724,1.642,1.733,1.733,0,0,0,1.747,1.728,1.583,1.583,0,0,0,1.626-1.673" transform="translate(-71.287 -144.193)" fill="#c52027"/>
  </g>
</svg>
