<svg id="Group_3721" data-name="Group 3721" xmlns="http://www.w3.org/2000/svg" xmlns:xlink="http://www.w3.org/1999/xlink" width="81.314" height="81.294" viewBox="0 0 81.314 81.294">
  <defs>
    <clipPath id="clip-path">
      <rect id="Rectangle_28" data-name="Rectangle 28" width="81.314" height="81.294" fill="#c52027"/>
    </clipPath>
  </defs>
  <g id="Group_3720" data-name="Group 3720" clip-path="url(#clip-path)">
    <path id="Path_3" data-name="Path 3" d="M94.614,34.9c-.4,0-.808-.02-1.21,0a2.452,2.452,0,0,1-2.488-2.143,26.542,26.542,0,0,1-.152-5.166c.031-.516.061-1.031.137-1.543a2.677,2.677,0,0,1,2.537-2.224c.827-.009,1.654,0,2.482,0a1.322,1.322,0,0,0,1.487-1.065,29.459,29.459,0,0,1,1.932-4.731,1.342,1.342,0,0,0-.318-1.885c-.621-.621-1.266-1.222-1.849-1.878a2.524,2.524,0,0,1-.214-3.03,19.424,19.424,0,0,1,1.562-1.924,21.513,21.513,0,0,1,3.119-2.872,2.669,2.669,0,0,1,3.535.215c.542.525,1.068,1.067,1.6,1.6a3.519,3.519,0,0,0,.342.315,1.248,1.248,0,0,0,1.475.131,19.927,19.927,0,0,1,3.439-1.563c.519-.175,1.046-.323,1.569-.485a1.141,1.141,0,0,0,.9-1.054,21.89,21.89,0,0,0,.026-2.758A2.549,2.549,0,0,1,116.907.17a28.95,28.95,0,0,1,6.37.01,2.608,2.608,0,0,1,2.335,2.584c.012.889,0,1.778.006,2.668a1.175,1.175,0,0,0,.854,1.194,30.473,30.473,0,0,1,4.877,1.983,1.427,1.427,0,0,0,2.019-.358q.819-.825,1.647-1.642a2.506,2.506,0,0,1,3.236-.322,18.447,18.447,0,0,1,3.065,2.655c.567.6,1.072,1.259,1.609,1.888a2.69,2.69,0,0,1-.2,3.728c-.565.576-1.138,1.143-1.706,1.716a1.265,1.265,0,0,0-.239,1.689,20.52,20.52,0,0,1,1.987,4.867,1.211,1.211,0,0,0,1.318.988c.858.007,1.717,0,2.575,0a2.5,2.5,0,0,1,2.606,2.376,29.1,29.1,0,0,1,.177,3.527,25.065,25.065,0,0,1-.194,2.936,2.543,2.543,0,0,1-2.53,2.236c-.714.007-1.427,0-2.141,0a5.012,5.012,0,0,0-.8.054,1.1,1.1,0,0,0-.948.788,32.677,32.677,0,0,1-2.044,5.019,1.328,1.328,0,0,0,.294,1.792c.573.583,1.162,1.149,1.733,1.733a2.536,2.536,0,0,1,.285,3.368,19.615,19.615,0,0,1-3.38,3.657c-.365.305-.727.613-1.1.9a2.648,2.648,0,0,1-3.723-.2c-.574-.551-1.126-1.126-1.688-1.69a1.252,1.252,0,0,0-1.708-.255,22.5,22.5,0,0,1-4.86,2.01,1.211,1.211,0,0,0-1.013,1.387c0,.838,0,1.675,0,2.513a2.455,2.455,0,0,1-2.146,2.557,12.134,12.134,0,0,1-1.881.166,28.271,28.271,0,0,1-4.828-.163,2.576,2.576,0,0,1-2.218-2.522c-.007-.776,0-1.551-.006-2.327a4.669,4.669,0,0,0-.044-.555,1.185,1.185,0,0,0-.9-1.063,29.267,29.267,0,0,1-4.932-2.01,1.276,1.276,0,0,0-1.67.24c-.567.543-1.127,1.1-1.663,1.669a2.667,2.667,0,0,1-3.79.223c-.179-.14-.355-.284-.532-.427-.135-.109-.168-.2-.018-.347,1.129-1.122,2.245-2.257,3.371-3.382q2.467-2.466,4.943-4.924c.278-.277.552-.559.828-.838a.321.321,0,0,1,.487-.03,15.262,15.262,0,0,0,7.209,2.956,16.031,16.031,0,0,0,17.472-10.916,14.98,14.98,0,0,0,.766-5.559,15.808,15.808,0,0,0-5.481-11.418,16.023,16.023,0,0,0-17.54-2.3,15.791,15.791,0,0,0-8.2,9.5,15.3,15.3,0,0,0-.736,5.717,15.583,15.583,0,0,0,3.073,8.572.361.361,0,0,1-.037.559q-4.174,4.161-8.34,8.329c-.263.263-.553.5-.79.787-.07.084-.163.164-.257.05a4.2,4.2,0,0,1-1.137-1.817,2.64,2.64,0,0,1,.734-2.422c.6-.627,1.238-1.218,1.822-1.862a1.237,1.237,0,0,0,.213-1.614,22.171,22.171,0,0,1-2.011-4.893A1.236,1.236,0,0,0,96.01,34.9c-.465,0-.931,0-1.4,0Z" transform="translate(-68.131 0)" fill="#c52027"/>
    <path id="Path_4" data-name="Path 4" d="M108.554,77.764A9.71,9.71,0,0,1,115.6,80.7a9.467,9.467,0,0,1,2.8,5.549,9.743,9.743,0,0,1-2.464,8.151,9.382,9.382,0,0,1-3.6,2.574,9.889,9.889,0,0,1-9.59-1.108c-.245-.166-.385-.094-.555.078-1.477,1.487-2.938,2.989-4.441,4.449-.9.871-1.773,1.763-2.655,2.647-1.123,1.126-2.259,2.24-3.368,3.381q-1.792,1.844-3.641,3.632c-1.005.967-1.969,1.975-2.971,2.946-.363.352-.7.736-1.058,1.089a.421.421,0,0,0-.092.552,4.123,4.123,0,0,1,.123,3.346,4.365,4.365,0,0,1-3.571,2.939,4.536,4.536,0,0,1-3.192-8.266,4.306,4.306,0,0,1,4.054-.457.841.841,0,0,0,1.066-.232c1.629-1.673,3.319-3.287,4.948-4.959,1.045-1.073,2.109-2.129,3.174-3.181.941-.929,1.866-1.874,2.8-2.806.819-.815,1.648-1.623,2.45-2.456,1.147-1.19,2.347-2.328,3.522-3.49A12.294,12.294,0,0,1,100.417,94c.174-.134.12-.29.011-.435a8.149,8.149,0,0,1-.674-1.077,9.955,9.955,0,0,1-1.137-5.841,9.672,9.672,0,0,1,2.916-6.013,9.809,9.809,0,0,1,5.534-2.775,7.71,7.71,0,0,1,1.486-.092" transform="translate(-56.55 -58.406)" fill="#c52027"/>
    <path id="Path_5" data-name="Path 5" d="M19.252,156.66c-2.316,0-4.632.006-6.947-.006a1.2,1.2,0,0,0-.932.387c-.828.837-1.708,1.621-2.505,2.491a.552.552,0,0,0-.137.684,4.083,4.083,0,0,1,.354,1.81,4.349,4.349,0,0,1-2.5,3.986,4.246,4.246,0,0,1-4.24-.09A4.5,4.5,0,0,1,1.77,158.4a4.408,4.408,0,0,1,4.7-.538.312.312,0,0,0,.4-.091c.6-.609,1.205-1.22,1.82-1.819s1.263-1.161,1.818-1.819a.728.728,0,0,1,.621-.211c2.926,0,5.851,0,8.777.01,1.654.005,3.307.029,4.96.049A1.356,1.356,0,0,0,26,153.5c.844-.934,1.761-1.8,2.656-2.689.261-.26.314-.234.45.118a15.737,15.737,0,0,0,.864,1.988.369.369,0,0,1-.068.5q-1.53,1.518-3.049,3.047a.73.73,0,0,1-.564.2q-3.52,0-7.041,0ZM6.9,161.966a2.415,2.415,0,0,0-2.433-2.382,2.38,2.38,0,0,0,.111,4.758A2.392,2.392,0,0,0,6.9,161.966" transform="translate(0 -113.145)" fill="#c52027"/>
    <path id="Path_6" data-name="Path 6" d="M122.175,216.872c0-2.327,0-4.653,0-6.98a1.092,1.092,0,0,1,.352-.849q1.431-1.4,2.83-2.829a.49.49,0,0,1,.632-.126,18.253,18.253,0,0,0,2.132.844c.224.071.188.176.056.308-.234.234-.457.48-.7.7-.827.75-1.536,1.62-2.389,2.342a.518.518,0,0,0-.176.348,6.177,6.177,0,0,0-.048.866c-.005,4.446.1,8.891.059,13.337a1.1,1.1,0,0,1-.345.85c-1.167,1.143-2.314,2.307-3.475,3.455a.416.416,0,0,0-.081.559A4.414,4.414,0,0,1,121,233.37a4.482,4.482,0,0,1-6.183,2.165,4.271,4.271,0,0,1-2.255-2.592,4.5,4.5,0,0,1,2.2-5.444,4.2,4.2,0,0,1,3.908-.132.45.45,0,0,0,.58-.092c.926-.93,1.865-1.848,2.755-2.814a.775.775,0,0,0,.164-.578q0-3.505,0-7.011Zm-5.34,12.278a2.392,2.392,0,0,0-2.345,2.356,2.374,2.374,0,1,0,2.345-2.356" transform="translate(-84.375 -154.749)" fill="#c52027"/>
    <path id="Path_7" data-name="Path 7" d="M50.034,77.96c-.827,0-1.654,0-2.481,0a.939.939,0,0,0-.715.3q-3.072,3.089-6.161,6.162a.446.446,0,0,0-.106.573A4.54,4.54,0,1,1,35.9,82.323a4.3,4.3,0,0,1,2.438.4.325.325,0,0,0,.409-.1c.944-.868,1.835-1.789,2.743-2.693,1.128-1.123,2.25-2.252,3.379-3.375.381-.379.711-.8,1.127-1.151a.723.723,0,0,1,.5-.188c1.106,0,2.213.027,3.318-.013,1.3-.047,2.6.058,3.9,0,.224-.01.282.123.165.418-.168.422-.352.838-.524,1.258a7.015,7.015,0,0,0-.277.723.446.446,0,0,1-.5.358c-.847-.007-1.7,0-2.543,0ZM36.38,84.472a2.359,2.359,0,1,0,2.4,2.347,2.438,2.438,0,0,0-2.4-2.347" transform="translate(-23.941 -56.479)" fill="#c52027"/>
    <path id="Path_8" data-name="Path 8" d="M200.148,210.1c0-.827.007-1.654,0-2.481a.457.457,0,0,1,.385-.513,11.558,11.558,0,0,0,1.993-.847c.295-.137.363-.106.368.224.017,1.1.06,2.191.038,3.285-.026,1.251-.034,2.5-.038,3.751a1.041,1.041,0,0,1-.325.775q-1.448,1.442-2.9,2.88c-1.305,1.3-2.58,2.622-3.918,3.884a.681.681,0,0,0-.192.882,4.526,4.526,0,0,1-7.267,5.031,4.566,4.566,0,0,1-.957-5.474,4.485,4.485,0,0,1,5.338-2.193,1.239,1.239,0,0,1,.294.1c.4.241.675.11.988-.209q2.772-2.82,5.587-5.6a1.767,1.767,0,0,0,.615-1.476c-.05-.668-.011-1.343-.011-2.015ZM193.7,223.614a2.362,2.362,0,1,0-2.412,2.4,2.412,2.412,0,0,0,2.412-2.4" transform="translate(-140.319 -154.869)" fill="#c52027"/>
  </g>
</svg>
